<svg width="34" height="34" viewBox="0 0 40 34" fill="none" xmlns="http://www.w3.org/2000/svg">
<g clip-path="url(#clip0_79_1282)">
<path d="M4.25 24.5C4.25 25.0523 4.69772 25.5 5.25 25.5H28.75C29.3023 25.5 29.75 25.0523 29.75 24.5V23.6667C29.75 23.1144 29.3023 22.6667 28.75 22.6667H5.25C4.69772 22.6667 4.25 23.1144 4.25 23.6667V24.5ZM4.25 17.4167C4.25 17.969 4.69772 18.4167 5.25 18.4167H28.75C29.3023 18.4167 29.75 17.969 29.75 17.4167V16.5833C29.75 16.031 29.3023 15.5833 28.75 15.5833H5.25C4.69772 15.5833 4.25 16.031 4.25 16.5833V17.4167ZM5.25 8.5C4.69772 8.5 4.25 8.94772 4.25 9.5V10.3333C4.25 10.8856 4.69772 11.3333 5.25 11.3333H28.75C29.3023 11.3333 29.75 10.8856 29.75 10.3333V9.5C29.75 8.94771 29.3023 8.5 28.75 8.5H5.25Z" fill="#6368CE"/>
</g>
<defs>
<clipPath id="clip0_79_1282">
<rect width="34" height="34" fill="white"/>
</clipPath>
</defs>
</svg>
