<svg width="30" height="30" viewBox="0 0 30 30" fill="currentColor" xmlns="http://www.w3.org/2000/svg">
<path d="M4.4375 23.2812C3.88521 23.2812 3.4375 22.8335 3.4375 22.2812V20.5937C3.4375 20.0415 3.88522 19.5938 4.4375 19.5938H25.5625C26.1148 19.5938 26.5625 20.0415 26.5625 20.5938V22.2813C26.5625 22.8335 26.1148 23.2812 25.5625 23.2812H4.4375ZM4.4375 16.8438C3.88521 16.8438 3.4375 16.396 3.4375 15.8437V14.1562C3.4375 13.604 3.88522 13.1562 4.4375 13.1562H25.5625C26.1148 13.1562 26.5625 13.604 26.5625 14.1563V15.8438C26.5625 16.396 26.1148 16.8438 25.5625 16.8438H4.4375ZM4.4375 10.4062C3.88521 10.4062 3.4375 9.95853 3.4375 9.40625V7.71875C3.4375 7.16647 3.88522 6.71875 4.4375 6.71875H25.5625C26.1148 6.71875 26.5625 7.16647 26.5625 7.71875V9.40625C26.5625 9.95853 26.1148 10.4062 25.5625 10.4062H4.4375Z" fill="currentColor"/>
</svg>
